<!DOCTYPE svg PUBLIC "-//W3C//DTD SVG 1.1//EN" "http://www.w3.org/Graphics/SVG/1.1/DTD/svg11.dtd">
<!-- Uploaded to: SVG Repo, www.svgrepo.com, Transformed by: SVG Repo Mixer Tools -->
<svg width="800px" height="800px" viewBox="0 0 1024 1024" class="icon" version="1.1" xmlns="http://www.w3.org/2000/svg" fill="#000000">
<g id="SVGRepo_bgCarrier" stroke-width="0"/>
<g id="SVGRepo_tracerCarrier" stroke-linecap="round" stroke-linejoin="round"/>
<g id="SVGRepo_iconCarrier">
<path d="M106.666667 746.666667V277.333333c0-46.933333 38.4-85.333333 85.333333-85.333333h640c46.933333 0 85.333333 38.4 85.333333 85.333333v469.333334c0 46.933333-38.4 85.333333-85.333333 85.333333H192c-46.933333 0-85.333333-38.4-85.333333-85.333333z" fill="#FF9800"/>
<path d="M917.333333 448v-42.666667H661.333333c-23.466667 0-42.666667-19.2-42.666666-42.666666s19.2-42.666667 42.666666-42.666667h21.333334v-42.666667h-21.333334c-46.933333 0-85.333333 38.4-85.333333 85.333334s38.4 85.333333 85.333333 85.333333h64v128h-64c-59.733333 0-106.666667 46.933333-106.666666 106.666667s46.933333 106.666667 106.666666 106.666666h42.666667v-42.666666h-42.666667c-36.266667 0-64-27.733333-64-64s27.733333-64 64-64h256v-42.666667h-149.333333v-128h149.333333zM362.666667 576h-64v-128h64c46.933333 0 85.333333-38.4 85.333333-85.333333s-38.4-85.333333-85.333333-85.333334h-64v42.666667h64c23.466667 0 42.666667 19.2 42.666666 42.666667s-19.2 42.666667-42.666666 42.666666H106.666667v42.666667h149.333333v128H106.666667v42.666667h256c36.266667 0 64 27.733333 64 64s-27.733333 64-64 64h-42.666667v42.666666h42.666667c59.733333 0 106.666667-46.933333 106.666666-106.666666s-46.933333-106.666667-106.666666-106.666667z" fill="#FFD54F"/>
</g>
</svg>